<svg width="18" height="23" viewBox="0 0 18 23" fill="none" xmlns="http://www.w3.org/2000/svg">
<path d="M9.5625 0C4.75313 0 0 3.15203 0 8.25333C0 11.4975 1.85625 13.3408 2.98125 13.3408C3.44531 13.3408 3.7125 12.0689 3.7125 11.7095C3.7125 11.2809 2.60156 10.3685 2.60156 8.58512C2.60156 4.88011 5.47031 2.25342 9.18281 2.25342C12.375 2.25342 14.7375 4.0368 14.7375 7.31325C14.7375 9.76022 13.7391 14.35 10.5047 14.35C9.3375 14.35 8.33906 13.5205 8.33906 12.3316C8.33906 10.5897 9.57656 8.90309 9.57656 7.10588C9.57656 4.05524 5.175 4.60822 5.175 8.2948C5.175 9.06898 5.27344 9.92611 5.625 10.6312C4.97812 13.3685 3.65625 17.4467 3.65625 20.267C3.65625 21.1379 3.78281 21.9951 3.86719 22.866C4.02656 23.0411 3.94688 23.0227 4.19063 22.9351C6.55313 19.7555 6.46875 19.1333 7.5375 14.9721C8.11406 16.0504 9.60469 16.6311 10.7859 16.6311C15.7641 16.6311 18 11.8616 18 7.5621C18 2.98613 13.9781 0 9.5625 0Z" fill="white"/>
</svg>
