<svg width="23" height="23" viewBox="0 0 23 23" fill="none" xmlns="http://www.w3.org/2000/svg">
<path d="M11.5 5.51197C8.28566 5.51197 5.69152 8.10611 5.69152 11.3205C5.69152 14.5348 8.28566 17.129 11.5 17.129C14.7144 17.129 17.3085 14.5348 17.3085 11.3205C17.3085 8.10611 14.7144 5.51197 11.5 5.51197ZM11.5 15.0956C9.42131 15.0956 7.72492 13.3992 7.72492 11.3205C7.72492 9.24176 9.42131 7.54537 11.5 7.54537C13.5787 7.54537 15.2751 9.24176 15.2751 11.3205C15.2751 13.3992 13.5787 15.0956 11.5 15.0956ZM17.5464 3.92037C16.7959 3.92037 16.1899 4.52643 16.1899 5.27691C16.1899 6.0274 16.7959 6.63346 17.5464 6.63346C18.2969 6.63346 18.903 6.03023 18.903 5.27691C18.9032 5.09871 18.8682 4.92221 18.8002 4.75752C18.7321 4.59284 18.6321 4.44321 18.5061 4.3172C18.3801 4.19118 18.2305 4.09127 18.0658 4.02318C17.9011 3.95508 17.7246 3.92015 17.5464 3.92037V3.92037ZM22.8225 11.3205C22.8225 9.75719 22.8367 8.20807 22.7489 6.64762C22.6611 4.83512 22.2476 3.22652 20.9222 1.90113C19.594 0.572912 17.9882 0.162268 16.1757 0.0744751C14.6124 -0.0133178 13.0633 0.000842371 11.5029 0.000842371C9.93957 0.000842371 8.39045 -0.0133178 6.83 0.0744751C5.0175 0.162268 3.4089 0.575744 2.08351 1.90113C0.755286 3.22936 0.344641 4.83512 0.256848 6.64762C0.169055 8.2109 0.183215 9.76002 0.183215 11.3205C0.183215 12.8809 0.169055 14.4329 0.256848 15.9933C0.344641 17.8058 0.758118 19.4144 2.08351 20.7398C3.41173 22.068 5.0175 22.4787 6.83 22.5665C8.39328 22.6543 9.9424 22.6401 11.5029 22.6401C13.0661 22.6401 14.6153 22.6543 16.1757 22.5665C17.9882 22.4787 19.5968 22.0652 20.9222 20.7398C22.2504 19.4116 22.6611 17.8058 22.7489 15.9933C22.8395 14.4329 22.8225 12.8837 22.8225 11.3205V11.3205ZM20.3303 17.9984C20.1236 18.5138 19.8743 18.899 19.475 19.2955C19.0757 19.6948 18.6934 19.944 18.178 20.1507C16.6883 20.7426 13.1511 20.6095 11.5 20.6095C9.84894 20.6095 6.3089 20.7426 4.81925 20.1536C4.30382 19.9468 3.91867 19.6976 3.52218 19.2983C3.12287 18.899 2.87365 18.5167 2.66691 18.0012C2.07785 16.5087 2.21095 12.9715 2.21095 11.3205C2.21095 9.66939 2.07785 6.12936 2.66691 4.63971C2.87365 4.12428 3.12287 3.73912 3.52218 3.34264C3.9215 2.94615 4.30382 2.6941 4.81925 2.48737C6.3089 1.8983 9.84894 2.03141 11.5 2.03141C13.1511 2.03141 16.6911 1.8983 18.1808 2.48737C18.6962 2.6941 19.0814 2.94332 19.4779 3.34264C19.8772 3.74195 20.1264 4.12428 20.3331 4.63971C20.9222 6.12936 20.7891 9.66939 20.7891 11.3205C20.7891 12.9715 20.9222 16.5087 20.3303 17.9984Z" fill="white"/>
</svg>
