<svg width="23" height="23" viewBox="0 0 23 23" fill="none" xmlns="http://www.w3.org/2000/svg">
<path fill-rule="evenodd" clip-rule="evenodd" d="M8.54335 8.01435H12.8144V10.1419C13.4297 8.91825 15.0075 7.81885 17.3776 7.81885C21.9213 7.81885 23 10.2546 23 14.7235V23H18.4V15.7412C18.4 13.1962 17.7848 11.7611 16.2185 11.7611C14.0461 11.7611 13.1433 13.3078 13.1433 15.74V23H8.54335V8.01435V8.01435ZM0.6555 22.8045H5.2555V7.81885H0.6555V22.8045V22.8045ZM5.91445 2.9325C5.91462 3.31807 5.83815 3.69982 5.6895 4.05558C5.54084 4.41133 5.32295 4.73399 5.0485 5.0048C4.49236 5.55752 3.73958 5.8669 2.9555 5.865C2.1728 5.86447 1.42176 5.55588 0.8648 5.00595C0.591343 4.73422 0.374194 4.4112 0.225795 4.0554C0.0773967 3.6996 0.000666002 3.31801 0 2.9325C0 2.15395 0.3105 1.40875 0.86595 0.85905C1.42242 0.308382 2.17378 -0.000344092 2.95665 2.87804e-07C3.74095 2.87804e-07 4.49305 0.30935 5.0485 0.85905C5.6028 1.40875 5.91445 2.15395 5.91445 2.9325Z" fill="white"/>
</svg>
